<svg width="281" height="82" viewBox="0 0 281 82" fill="none" xmlns="http://www.w3.org/2000/svg">
<path d="M43.832 22.192H31.288V54H22.328V22.192H9.84V14.8H43.832V22.192ZM66.4963 14.8C69.9683 14.8 72.9736 15.3787 75.5122 16.536C78.0883 17.6933 80.0669 19.336 81.4483 21.464C82.8296 23.592 83.5203 26.112 83.5203 29.024C83.5203 31.8987 82.8296 34.4187 81.4483 36.584C80.0669 38.712 78.0883 40.3547 75.5122 41.512C72.9736 42.632 69.9683 43.192 66.4963 43.192H58.6003V54H49.5283V14.8H66.4963ZM65.9923 35.8C68.7176 35.8 70.7896 35.2213 72.2083 34.064C73.6269 32.8693 74.3363 31.1893 74.3363 29.024C74.3363 26.8213 73.6269 25.1413 72.2083 23.984C70.7896 22.7893 68.7176 22.192 65.9923 22.192H58.6003V35.8H65.9923ZM89.5048 14.8H98.5208V40.336L117.225 14.8H125.737V54H116.777V28.52L98.0728 54H89.5048V14.8ZM170.889 14.8L154.201 45.824C152.596 48.8107 150.654 51.0693 148.377 52.6C146.137 54.1307 143.692 54.896 141.041 54.896C138.988 54.896 136.86 54.448 134.657 53.552L136.841 46.664C138.409 47.1493 139.716 47.392 140.761 47.392C141.881 47.392 142.889 47.1307 143.785 46.608C144.681 46.048 145.502 45.1893 146.249 44.032L146.585 43.584L131.129 14.8H140.817L151.233 35.856L161.985 14.8H170.889ZM210.872 54L210.816 30.536L199.28 49.856H195.248L183.712 30.984V54H175.2V14.8H182.704L197.376 39.16L211.824 14.8H219.328L219.384 54H210.872ZM275.546 34.288C275.546 39.4773 273.773 43.5653 270.226 46.552C266.717 49.5013 261.658 51.144 255.05 51.48V55.736H246.706V51.424C240.061 51.0507 234.965 49.3893 231.418 46.44C227.909 43.4533 226.154 39.4027 226.154 34.288C226.154 29.136 227.909 25.104 231.418 22.192C234.965 19.2427 240.061 17.5627 246.706 17.152V13.12H255.05V17.096C261.658 17.4693 266.717 19.1493 270.226 22.136C273.773 25.1227 275.546 29.1733 275.546 34.288ZM255.05 44.368C259.007 43.9947 261.957 42.9867 263.898 41.344C265.839 39.664 266.81 37.2933 266.81 34.232C266.81 28.2587 262.89 24.936 255.05 24.264V44.368ZM234.946 34.288C234.946 40.1867 238.866 43.5467 246.706 44.368V24.264C242.711 24.6373 239.743 25.6453 237.802 27.288C235.898 28.8933 234.946 31.2267 234.946 34.288Z" fill="white"/>
</svg>
