<?xml version="1.0" encoding="utf-8"?><svg viewBox="0 0 185 147" xmlns="http://www.w3.org/2000/svg" xmlns:xlink="http://www.w3.org/1999/xlink"><style>:root>svg{display:none}:root>svg:target{display:block}</style><svg viewBox="0 0 185 138" id="efficiency" xmlns="http://www.w3.org/2000/svg"><path fill-rule="evenodd" clip-rule="evenodd" d="M110.718.076c-4.532.19-9.753 1.23-15.25 3.034a68.8 68.8 0 00-45.433 49.037c-3.347 13.64-2.5 28.34 2.372 41.171 8.045 21.187 25.955 37.053 48.184 42.687 3.771.955 5.673 1.212 10.835 1.461 4.551.221 11.289.04 15.342-.411 6.325-.703 15.146-3.7 22.28-7.569 32.506-17.631 45.254-58.235 28.719-91.47-6.029-12.117-15.093-21.9-26.618-28.73-7.267-4.307-17.171-7.832-24.344-8.665-4.547-.528-11.161-.752-16.087-.545zM91.742 17.281c8.564 3.008 9.064 3.205 9.064 3.57 0 .9-5.18 16.205-6.064 17.92-.15.29-.266.293-1.345.043-1.579-.365-3.41-.98-3.82-1.282-.313-.23-.26-.473.835-3.821.703-2.147 1.101-3.645.998-3.748-.407-.41-4.224 2.69-7.864 6.385-7.592 7.709-12.225 17.07-13.535 27.35-.13 1.02-.182 1.908-.116 1.975.067.067.91.193 1.874.28 2.583.232 2.922.322 3.656.971.993.878 1.463 1.923 1.314 2.921-.299 2.008-1.71 2.943-4.66 3.086-2.386.116-2.39.122-1.961 2.77 1.11 6.836 3.002 12.288 6.089 17.54 5.91 10.059 15.142 17.518 26.082 21.074 3.157 1.027 10.226 2.454 10.547 2.131.071-.072.186-1.139.256-2.373.07-1.233.218-2.414.33-2.624.377-.71 1.667-1.722 2.363-1.853.948-.179 2.079.168 2.894.89.89.786 1.15 1.45 1.29 3.291.063.828.157 1.786.209 2.129l.095.623.982-.121c6.867-.85 13.558-3.186 19.851-6.93 6.639-3.949 13.893-12.025 17.502-19.487 2.092-4.324 4.094-11.378 4.272-15.049l.094-1.927-1.959-.073c-2.293-.087-3.559-.58-4.272-1.664-.949-1.442-.336-3.794 1.229-4.717.765-.452 1.106-.519 3.006-.592l2.143-.083-.119-1.26c-.491-5.23-2.081-10.865-4.487-15.902-1.328-2.78-2.495-4.641-5.292-8.436-1.283-1.74-2.471-3.438-2.64-3.773-.172-.339-.308-1.063-.308-1.635 0-1.855 1.201-2.985 3.173-2.985 1.33 0 1.811.283 3.415 2.012 6.295 6.79 11.029 17.101 12.581 27.404 1.073 7.122.743 14.434-.964 21.358-4.614 18.717-19.149 33.633-37.976 38.972-4.973 1.41-9.087 1.837-16.009 1.661-5.154-.131-6.614-.293-9.858-1.092-22.184-5.463-38.004-22.96-41.34-45.722-.47-3.198-.47-10.861-.003-14.072.929-6.371 2.483-11.334 5.332-17.028 2.787-5.57 5.917-9.914 10.35-14.36 2.837-2.847 3.999-3.827 7.534-6.355 1.423-1.018 2.206-1.697 2.17-1.884-.035-.186-1.112-.68-2.993-1.371-3.242-1.192-4.487-1.771-4.634-2.157-.093-.244.385-1.838 1.239-4.13l.4-1.074 1.835.667c1.009.367 4.256 1.518 7.215 2.557zM14.556 39.135c-2.176.168-2.89.467-3.58 1.498-.894 1.337-.315 3.49 1.145 4.248 1.097.571 4.126.71 12.875.593 8.666-.117 10.889-.27 11.608-.8 1.09-.804 1.411-2.359.777-3.766-.501-1.11-1.244-1.57-2.884-1.785-1.636-.214-17.141-.205-19.941.012zm128.618 1.986c1.256.6 2.087 2.689 1.564 3.932-.436 1.04-2.677 3.455-12.064 13.001l-8.964 9.116-.128 1.874c-.206 3.005-1.024 4.75-2.909 6.207-1.184.916-2.494 1.319-4.307 1.326-1.327.006-1.677-.068-2.663-.565-1.37-.69-3.121-2.47-3.686-3.75-.495-1.12-.662-3.441-.344-4.778.223-.938.215-.977-.395-1.872-.343-.503-2.029-2.37-3.746-4.148-6.915-7.163-7.733-8.044-8.295-8.937-.888-1.41-.718-2.808.477-3.933 1.135-1.07 2.398-1.191 3.704-.357.482.308 3.093 2.725 5.803 5.372 7.889 7.706 9.09 8.712 10.398 8.712 1.023 0 1.795-.642 7.072-5.881 8.441-8.38 13.189-13.013 14.802-14.44 1.476-1.308 1.628-1.395 2.284-1.306a5.66 5.66 0 011.397.426zM1.641 66.037c-2.119 1.688-2.19 3.681-.192 5.401l.857.738 19.275-.09c10.602-.049 19.445-.124 19.653-.167.468-.097 1.528-1.674 1.703-2.534.178-.88-.198-2.09-.92-2.956l-.607-.727-16.987-.076c-9.343-.042-18.115-.107-19.492-.145l-2.506-.07-.784.626zm15.893 26.132c-4.227.11-4.486.139-5.369.585-1.213.614-1.665 1.426-1.562 2.806.094 1.258.537 1.894 1.752 2.512l.934.476 6.892.06c8.785.076 15.365-.176 16.223-.623.704-.367 1.326-1.563 1.333-2.563.006-.95-.67-2.212-1.444-2.694-.572-.356-1.079-.436-3.62-.569-3.255-.17-8.338-.167-15.14.01z"/></svg><svg viewBox="0 0 138 126" id="price" xmlns="http://www.w3.org/2000/svg"><path fill-rule="evenodd" clip-rule="evenodd" d="M27.331.155c-1.873.411-3.36 1.544-4.021 3.065l-.252.579-.047 31.866-.047 31.867-9.301.04-9.301.038-.554.177c-1.492.477-2.541 1.286-3.227 2.489-.466.817-.583 1.25-.581 2.156.003 1.397.553 2.394 1.949 3.537.531.435 58.226 44.434 63.083 48.108 1.099.831 2.617 1.345 3.971 1.345 1.355 0 2.873-.514 3.972-1.345 4.856-3.674 62.551-47.673 63.083-48.108 1.399-1.145 1.936-2.122 1.942-3.534.004-.922-.108-1.342-.574-2.16-.686-1.202-1.735-2.011-3.228-2.488l-.553-.177-9.301-.039-9.302-.039-.047-31.867c-.039-26.508-.068-31.919-.173-32.18-.699-1.731-2.172-2.902-4.198-3.337-.693-.148-1.485-.151-41.659-.147-39.99.004-40.969.008-41.634.154zm76.189 41.292c.023 30.598.031 31.824.196 32.239.661 1.666 2.117 2.852 4.113 3.353.393.099 1.316.13 4.983.167l4.499.047-24.114 18.383c-13.264 10.111-24.15 18.383-24.194 18.383-.043 0-10.93-8.272-24.193-18.383L20.695 77.253l4.5-.047c4.859-.05 4.913-.054 6.006-.503 1.66-.681 2.858-1.99 3.172-3.465.109-.514.13-5.591.133-32.105l.003-31.494h68.987l.024 31.808zM63.734 24.305c-.48.316-.477.292-.526 3.782l-.047 3.28-.823.266c-2.368.768-4.526 1.961-6.22 3.44-3.11 2.718-4.663 6.426-4.312 10.306.171 1.901.693 3.473 1.732 5.22 1.96 3.295 5.523 5.84 9.81 7.006 1.594.433 2.892.622 5.141.749 2.186.123 2.795.239 3.74.714 1.097.552 1.943 1.43 2.296 2.383.262.706.262 1.814 0 2.52-.516 1.394-1.974 2.505-3.801 2.897-.98.21-2.46.21-3.441 0-2.192-.47-3.776-1.924-3.974-3.648l-.055-.47-5.29-.02-5.29-.02-.317.179c-.175.099-.373.267-.441.373-.255.399.089 2.26.686 3.721 1.217 2.978 3.722 5.59 7.011 7.31.959.501 1.544.749 2.656 1.124l.892.301.047 2.806c.05 3.047.05 3.042.59 3.319.285.145.51.152 5.205.152s4.92-.007 5.206-.152c.55-.281.54-.225.571-3.808l.028-3.294.627-.181c2.447-.708 5.232-2.296 6.973-3.974 3.573-3.446 4.774-8.434 3.082-12.805-.347-.895-1.447-2.695-2.16-3.535-.783-.922-2.521-2.41-3.572-3.056-2.997-1.846-5.935-2.696-10.171-2.942-2.206-.128-2.52-.179-3.45-.554-1.234-.497-2.265-1.482-2.655-2.537-.243-.656-.261-1.77-.04-2.415.362-1.06 1.405-2.115 2.584-2.614 1.73-.732 4.221-.734 5.945-.004 1.483.628 2.574 1.933 2.727 3.263l.054.47 5.262.02c5.814.023 5.627.038 6.013-.474.165-.218.182-.333.132-.877-.209-2.296-1.545-5.003-3.469-7.026-1.848-1.945-4.758-3.703-7.377-4.458l-.467-.134-.047-3.05c-.05-3.244-.049-3.239-.526-3.553-.243-.16-.326-.163-5.27-.163-4.943 0-5.026.002-5.27.163z"/></svg><svg viewBox="0 0 144 147" id="quality" xmlns="http://www.w3.org/2000/svg"><path fill-rule="evenodd" clip-rule="evenodd" d="M70.333.569c-1.011.195-2.123.63-3.107 1.213-.465.275-1.477 1.216-2.98 2.766-1.25 1.292-2.694 2.667-3.207 3.055-2.516 1.904-6.194 3.173-9.644 3.33-2.366.107-2.936-.004-8.363-1.623-.686-.204-1.21-.257-2.583-.26-1.618-.004-1.787.02-2.799.382-1.525.547-2.336 1.07-3.54 2.28-1.507 1.518-1.98 2.537-2.888 6.219-.38 1.539-.852 3.208-1.05 3.709-1.486 3.755-5.168 7.564-8.885 9.194-.566.248-2.275.76-3.898 1.17-3.845.968-4.759 1.403-6.351 3.023-.956.971-1.21 1.32-1.682 2.315-.763 1.606-.996 2.76-.909 4.516.061 1.221.162 1.7.874 4.156.934 3.219 1.116 4.36 1.024 6.427-.154 3.482-1.403 7.187-3.287 9.752-.382.519-1.547 1.771-2.59 2.783C2.1 67.272 1.51 67.977.91 69.23.205 70.703.003 71.6 0 73.27c-.002 1.108.06 1.65.27 2.4.588 2.09 1.315 3.12 4.1 5.808 2.304 2.224 3.186 3.36 4.104 5.279 1.167 2.442 1.757 4.755 1.871 7.344.092 2.067-.09 3.208-1.024 6.427-.712 2.456-.813 2.934-.874 4.156-.087 1.755.146 2.91.909 4.516.475.998.723 1.339 1.682 2.31 1.62 1.639 2.337 1.983 6.216 2.983 3.906 1.006 5.076 1.518 7.245 3.171 1.217.928 3.215 3.026 4.05 4.254 1.262 1.855 1.816 3.233 2.619 6.514.948 3.874 1.391 4.839 2.934 6.392 1.194 1.201 2.204 1.848 3.642 2.332.875.294 1.173.331 2.705.334l1.722.002 2.78-.824c3.392-1.007 4.3-1.154 6.5-1.052 2.597.12 4.778.69 7.206 1.883 1.909.937 2.99 1.806 5.528 4.443 1.708 1.774 2.416 2.421 3.099 2.827a9.418 9.418 0 003.78 1.283c1.978.234 4.248-.338 5.934-1.496.394-.27 1.766-1.564 3.05-2.875 2.47-2.521 3.353-3.229 5.205-4.167 2.343-1.187 4.693-1.789 7.404-1.897 2.24-.089 3.133.061 6.518 1.097l2.521.771 1.783.005c1.639.005 1.864-.023 2.767-.34 1.975-.693 3.612-1.953 4.724-3.633.786-1.188 1.01-1.815 1.809-5.057.367-1.485.851-3.142 1.076-3.682 1.655-3.969 5.549-7.833 9.366-9.295.472-.181 2.062-.63 3.532-.998 1.471-.368 3.04-.837 3.486-1.042 3.446-1.58 5.521-5.03 5.305-8.819-.055-.974-.217-1.717-.873-4.001-.996-3.471-1.109-4.174-1.025-6.398.104-2.764.706-5.187 1.874-7.543.929-1.873 1.642-2.783 4.122-5.258 2.922-2.916 3.563-3.837 4.132-5.936.322-1.187.296-3.37-.054-4.618-.588-2.09-1.315-3.12-4.099-5.807-1.099-1.06-2.309-2.352-2.69-2.871-1.327-1.809-2.411-4.36-2.976-6.998-.22-1.028-.27-1.665-.271-3.438 0-2.438-.003-2.425 1.098-6.156.62-2.103.704-2.52.763-3.796.08-1.754-.182-2.99-.975-4.598-.416-.846-.743-1.282-1.632-2.181-1.611-1.63-2.342-1.982-6.19-2.975-1.671-.43-3.397-.936-3.837-1.123-3.742-1.591-7.467-5.358-9.041-9.142-.185-.445-.685-2.19-1.111-3.88-.971-3.85-1.336-4.635-2.881-6.195-1.182-1.194-2.191-1.84-3.632-2.326-.887-.3-1.158-.332-2.767-.33l-1.783.002-2.521.771c-3.35 1.025-4.284 1.185-6.457 1.104-2.813-.106-5.415-.813-7.939-2.159-1.596-.85-2.491-1.592-4.653-3.854-1.082-1.132-2.285-2.308-2.674-2.613C76.615 1.649 75.297.99 74.27.714 73.228.435 71.376.367 70.333.57zm5.352 16.869c13.537.956 25.869 6.626 35.421 16.285 4.419 4.469 7.625 8.977 10.435 14.676 2.94 5.963 4.615 11.689 5.457 18.654.219 1.813.263 2.852.263 6.218 0 3.367-.044 4.406-.263 6.218-.842 6.966-2.517 12.692-5.457 18.654-2.797 5.673-6.033 10.224-10.435 14.678-4.44 4.491-9.053 7.83-14.76 10.681-5.727 2.862-11.437 4.552-18.202 5.387-3.109.384-9.19.384-12.298 0-6.76-.835-12.455-2.52-18.202-5.384-11.09-5.529-19.86-14.396-25.327-25.61-4.953-10.16-6.703-21.552-5.052-32.894 1.174-8.064 4.098-15.739 8.664-22.741 4.503-6.906 11.242-13.3 18.394-17.455 7.599-4.413 15.45-6.78 24.597-7.414 1.36-.094 5.138-.068 6.765.047zm-6.457 9.28c-4.62.38-7.749.987-11.532 2.235-11.67 3.85-21.403 12.328-26.909 23.44-8.247 16.648-5.955 36.49 5.865 50.775 11.147 13.473 28.787 19.474 45.674 15.539 15.778-3.677 28.566-15.559 33.562-31.184 4.288-13.408 2.28-28.169-5.43-39.92-7.953-12.124-20.735-19.704-35.136-20.837-1.516-.119-4.904-.145-6.094-.047zM97.207 50.22c1.075.24 2.86 1.144 3.693 1.871 1.556 1.36 2.718 3.234 3.134 5.056.255 1.119.251 3.204-.007 4.282-.343 1.433-1.153 2.945-2.247 4.195-.539.616-8.222 8.428-17.073 17.36-17.05 17.207-16.73 16.903-18.568 17.63-2.779 1.1-6.013.733-8.536-.97-1.106-.746-20.174-20.027-20.913-21.146-2.474-3.75-2.006-8.628 1.13-11.8 3.139-3.174 7.977-3.647 11.671-1.141.506.343 3.075 2.836 7.04 6.83l6.243 6.288 13.189-13.317c7.254-7.324 13.456-13.497 13.782-13.719.724-.492 2.163-1.172 2.912-1.376 1.313-.357 3.066-.374 4.55-.043z"/></svg></svg>