<svg width="185" height="138" viewBox="0 0 185 138" fill="none" xmlns="http://www.w3.org/2000/svg">
<path fill-rule="evenodd" clip-rule="evenodd" d="M110.718 0.0764742C106.186 0.266831 100.965 1.30533 95.4683 3.10963C72.835 10.5396 55.7099 29.0234 50.0354 52.1471C46.6881 65.787 47.5351 80.4872 52.4071 93.3181C60.4524 114.505 78.3622 130.371 100.591 136.005C104.362 136.96 106.264 137.217 111.426 137.466C115.977 137.687 122.715 137.506 126.768 137.055C133.093 136.352 141.914 133.355 149.048 129.486C181.554 111.855 194.302 71.2506 177.767 38.0164C171.738 25.899 162.674 16.1161 151.149 9.28586C143.882 4.97897 133.978 1.45404 126.805 0.621301C122.258 0.093399 115.644 -0.130617 110.718 0.0764742ZM91.7423 17.2814C100.306 20.2891 100.806 20.4859 100.806 20.8512C100.806 21.7505 95.6269 37.0555 94.7419 38.7715C94.5929 39.0604 94.476 39.0642 93.3966 38.8143C91.8181 38.449 89.9871 37.8342 89.5761 37.5317C89.2641 37.3017 89.3174 37.0585 90.4123 33.7108C91.1147 31.5639 91.5133 30.0663 91.4102 29.9625C91.0033 29.5527 87.1856 32.6527 83.5462 36.3479C75.9539 44.0568 71.3209 53.4184 70.0107 63.6988C69.881 64.7179 69.8289 65.6065 69.8953 65.6732C69.9618 65.7402 70.8047 65.8659 71.7688 65.9526C74.3518 66.1852 74.6915 66.2753 75.4248 66.924C76.4176 67.8018 76.888 68.8473 76.7394 69.8455C76.4405 71.8529 75.0281 72.7879 72.0782 72.931C69.6929 73.0466 69.6882 73.0534 70.1178 75.7005C71.2274 82.5366 73.1199 87.9889 76.2067 93.2419C82.1172 103.3 91.3485 110.759 102.289 114.315C105.446 115.342 112.515 116.769 112.836 116.446C112.907 116.374 113.022 115.307 113.092 114.073C113.162 112.84 113.31 111.659 113.422 111.449C113.799 110.739 115.089 109.727 115.785 109.596C116.733 109.417 117.864 109.764 118.679 110.486C119.569 111.272 119.829 111.936 119.969 113.777C120.032 114.605 120.126 115.563 120.178 115.906L120.273 116.529L121.255 116.408C128.122 115.558 134.813 113.222 141.106 109.478C147.745 105.529 154.999 97.4525 158.608 89.9906C160.7 85.6666 162.702 78.6126 162.88 74.942L162.974 73.0152L161.015 72.9416C158.722 72.8553 157.456 72.3625 156.743 71.2782C155.794 69.836 156.407 67.4844 157.972 66.5606C158.737 66.1089 159.078 66.042 160.978 65.9688L163.121 65.886L163.002 64.6266C162.511 59.3959 160.921 53.7612 158.515 48.7241C157.187 45.9431 156.02 44.0829 153.223 40.2883C151.94 38.5479 150.752 36.8501 150.583 36.5154C150.411 36.176 150.275 35.4524 150.275 34.8796C150.275 33.0249 151.476 31.8953 153.448 31.8947C154.778 31.8942 155.259 32.1777 156.863 33.9073C163.158 40.6964 167.892 51.008 169.444 61.3108C170.517 68.4333 170.187 75.7447 168.48 82.6688C163.866 101.386 149.331 116.302 130.504 121.641C125.531 123.051 121.417 123.478 114.495 123.302C109.341 123.171 107.881 123.009 104.637 122.21C82.4533 116.747 66.633 99.25 63.2964 76.4884C62.8275 73.2904 62.8264 65.6267 63.2943 62.4161C64.2229 56.0446 65.7769 51.0816 68.6255 45.3882C71.4132 39.8171 74.543 35.4744 78.9757 31.0274C81.813 28.1808 82.9748 27.2011 86.5102 24.673C87.9332 23.6554 88.7164 22.9759 88.6807 22.7894C88.645 22.6028 87.5676 22.1092 85.687 21.4179C82.4452 20.2261 81.2 19.6467 81.0531 19.2614C80.96 19.0172 81.4382 17.4227 82.2917 15.1316L82.6918 14.0575L84.5265 14.7244C85.5356 15.0913 88.7827 16.2418 91.7423 17.2814ZM14.5556 39.135C12.3801 39.3032 11.6666 39.6018 10.9766 40.6329C10.082 41.97 10.6615 44.1223 12.1207 44.8812C13.2184 45.4521 16.2467 45.5915 24.9957 45.474C33.6618 45.3574 35.8849 45.2043 36.6038 44.6743C37.6944 43.8703 38.0153 42.3151 37.3811 40.9084C36.88 39.7975 36.137 39.3375 34.4967 39.123C32.8612 38.909 17.3556 38.9184 14.5556 39.135ZM143.174 41.1205C144.43 41.7203 145.261 43.8098 144.738 45.0533C144.302 46.0935 142.061 48.5077 132.674 58.0544L123.71 67.1702L123.582 69.044C123.376 72.0495 122.558 73.7934 120.673 75.2508C119.489 76.1666 118.179 76.57 116.366 76.5772C115.039 76.5827 114.689 76.5086 113.703 76.0122C112.333 75.3227 110.582 73.5416 110.017 72.2627C109.522 71.1413 109.355 68.8207 109.673 67.4844C109.896 66.5461 109.888 66.5066 109.278 65.612C108.935 65.1094 107.249 63.2429 105.532 61.4643C98.6168 54.3005 97.7992 53.4199 97.2367 52.5267C96.3491 51.1168 96.5187 49.7192 97.7141 48.5936C98.8494 47.5245 100.112 47.403 101.418 48.2373C101.9 48.5448 104.511 50.9622 107.221 53.6095C115.11 61.3148 116.311 62.321 117.619 62.321C118.642 62.321 119.414 61.6788 124.691 56.4397C133.132 48.0591 137.88 43.427 139.493 41.9991C140.969 40.6924 141.121 40.6051 141.777 40.6937C142.164 40.746 142.793 40.9381 143.174 41.1205ZM1.64077 66.0367C-0.477751 67.7252 -0.54818 69.7185 1.4495 71.4383L2.30635 72.176L21.5813 72.0864C32.1826 72.0372 41.0262 71.9619 41.2339 71.9191C41.7016 71.8223 42.762 70.2447 42.9365 69.3855C43.1155 68.5054 42.739 67.2952 42.0171 66.4292L41.4105 65.7016L24.4232 65.6257C15.08 65.5841 6.30832 65.5188 4.93052 65.4808L2.42512 65.4116L1.64077 66.0367ZM17.5337 92.1691C13.3072 92.2793 13.0477 92.3076 12.1652 92.7539C10.9519 93.3678 10.5 94.1796 10.603 95.5604C10.6968 96.8181 11.1403 97.4543 12.3548 98.0723L13.2891 98.5477L20.1809 98.6078C28.9656 98.6844 35.5462 98.4319 36.4042 97.985C37.1079 97.6184 37.7302 96.4216 37.7367 95.4225C37.7427 94.4715 37.0667 93.2095 36.2935 92.7282C35.7214 92.3721 35.2143 92.2924 32.6722 92.1593C29.4176 91.9889 24.3354 91.9921 17.5337 92.1691Z" fill="white"/>
</svg>
