<svg width="138" height="126" viewBox="0 0 138 126" fill="none" xmlns="http://www.w3.org/2000/svg">
<path fill-rule="evenodd" clip-rule="evenodd" d="M27.3313 0.154952C25.4583 0.566436 23.9719 1.69937 23.3096 3.22011L23.0577 3.79873L23.011 35.6654L22.9642 67.5321L13.6629 67.5712L4.36164 67.6104L3.80823 67.7872C2.316 68.2638 1.26697 69.0726 0.580727 70.2758C0.11454 71.0932 -0.00202998 71.5261 2.65916e-05 72.4316C0.00329841 73.8288 0.55287 74.8261 1.949 75.9688C2.48034 76.4036 60.1752 120.403 65.032 124.077C66.131 124.908 67.6486 125.422 69.0033 125.422C70.358 125.422 71.8757 124.908 72.9746 124.077C77.8314 120.403 135.526 76.4036 136.058 75.9688C137.457 74.8235 137.994 73.8467 138 72.4354C138.004 71.5135 137.892 71.0933 137.426 70.2758C136.74 69.0726 135.691 68.2638 134.198 67.7872L133.645 67.6104L124.344 67.5712L115.042 67.5321L114.995 35.6654C114.956 9.15664 114.927 3.74597 114.822 3.48516C114.123 1.75354 112.65 0.582741 110.624 0.148132C109.931 -0.000422401 109.139 -0.00324455 68.965 0.000988663C28.9755 0.00522187 27.9962 0.00882795 27.3313 0.154952ZM103.52 41.4469C103.543 72.0454 103.551 73.2711 103.716 73.6859C104.377 75.3519 105.833 76.538 107.829 77.0389C108.222 77.1375 109.145 77.1686 112.812 77.2063L117.311 77.2528L93.1966 95.6359C79.9335 105.747 69.0465 114.019 69.0033 114.019C68.9601 114.019 58.0731 105.747 44.81 95.6359L20.6954 77.2528L25.1951 77.2063C30.0536 77.1562 30.1076 77.1517 31.2013 76.703C32.8611 76.022 34.0592 74.713 34.3728 73.238C34.482 72.7242 34.5031 67.6465 34.5058 41.1333L34.5091 9.63899H69.0026H103.496L103.52 41.4469ZM63.7337 24.3046C63.254 24.6209 63.2573 24.5973 63.2075 28.0872L63.1608 31.3664L62.3382 31.633C59.9698 32.4007 57.8117 33.5943 56.1189 35.073C53.0075 37.7908 51.4552 41.4995 51.8056 45.3786C51.9774 47.2801 52.4989 48.8516 53.5381 50.5992C55.4976 53.8943 59.0608 56.439 63.3478 57.6046C64.9417 58.0381 66.2405 58.2273 68.4892 58.3537C70.6749 58.4765 71.2842 58.5928 72.2284 59.0676C73.326 59.6195 74.1722 60.4975 74.5252 61.451C74.7867 62.1572 74.7867 63.2646 74.5252 63.9708C74.0091 65.3648 72.5513 66.4756 70.7237 66.8677C69.7433 67.0779 68.2633 67.0779 67.2829 66.8677C65.0913 66.3976 63.5074 64.9441 63.3085 63.2204L63.2543 62.7501L57.9642 62.7299L52.6742 62.7096L52.3568 62.889C52.1822 62.9876 51.9838 63.1555 51.9159 63.262C51.6615 63.6609 52.0047 65.5217 52.6021 66.9833C53.8194 69.9612 56.3236 72.5721 59.6134 74.2929C60.5719 74.7943 61.1569 75.0419 62.2687 75.4169L63.1608 75.718L63.2075 78.5236C63.2583 81.5706 63.2576 81.5664 63.7978 81.8427C64.0827 81.9883 64.3084 81.995 69.0033 81.995C73.6983 81.995 73.9239 81.9883 74.2089 81.8427C74.7584 81.5616 74.7499 81.6184 74.7803 78.035L74.8084 74.741L75.4347 74.5597C77.8816 73.8516 80.6672 72.264 82.4076 70.5858C85.981 67.1396 87.1816 62.1517 85.4895 57.7811C85.1429 56.8856 84.0433 55.0855 83.3298 54.2456C82.5471 53.3241 80.8086 51.8368 79.7577 51.1897C76.7606 49.3441 73.8229 48.4944 69.5865 48.2479C67.3815 48.1195 67.0668 48.069 66.1366 47.6944C64.9025 47.1975 63.8721 46.2124 63.4817 45.1566C63.2393 44.5007 63.2207 43.387 63.4414 42.7422C63.8044 41.6817 64.8473 40.6268 66.0263 40.1277C67.7556 39.3956 70.2472 39.394 71.9712 40.1238C73.4541 40.7516 74.5447 42.0566 74.6982 43.3871L74.7524 43.8574L80.0138 43.8777C85.828 43.9001 85.6414 43.9148 86.0271 43.4028C86.1916 43.1847 86.2089 43.0702 86.1592 42.5258C85.95 40.23 84.6137 37.5234 82.6902 35.4996C80.8417 33.5547 77.9319 31.7966 75.3132 31.0424L74.8458 30.9078L74.7991 27.8579C74.7494 24.614 74.7502 24.6193 74.2729 24.3046C74.03 24.1442 73.947 24.1416 69.0033 24.1416C64.0596 24.1416 63.9767 24.1442 63.7337 24.3046Z" fill="white"/>
</svg>
