<svg width="144" height="147" viewBox="0 0 144 147" fill="none" xmlns="http://www.w3.org/2000/svg">
<path fill-rule="evenodd" clip-rule="evenodd" d="M70.333 0.568528C69.3219 0.764272 68.21 1.19854 67.2258 1.78204C66.7614 2.05737 65.7486 2.99791 64.2469 4.54832C62.9955 5.84018 61.5519 7.21486 61.0388 7.60299C58.5226 9.5067 54.8452 10.7762 51.3949 10.9325C49.0293 11.0396 48.4588 10.9289 43.0319 9.31021C42.3459 9.10551 41.8214 9.05266 40.4492 9.04967C38.8314 9.04632 38.6624 9.06932 37.65 9.43246C36.1252 9.97915 35.3137 10.502 34.1104 11.7129C32.6026 13.2303 32.1296 14.2486 31.2218 17.9309C30.8423 19.4699 30.3697 21.1389 30.1715 21.6399C28.6858 25.3948 25.0043 29.2043 21.2867 30.8341C20.7214 31.0819 19.0119 31.5949 17.3894 32.0035C13.5441 32.9722 12.6302 33.4072 11.0376 35.0266C10.0819 35.9985 9.82891 36.3468 9.35603 37.3416C8.59254 38.9478 8.36022 40.1027 8.44742 41.8575C8.50805 43.0794 8.60865 43.5576 9.32111 46.0138C10.2551 49.2328 10.437 50.3741 10.3455 52.441C10.1912 55.9233 8.94219 59.628 7.05756 62.1927C6.6763 62.7115 5.51065 63.9641 4.46711 64.9762C2.09952 67.2722 1.51005 67.9771 0.910128 69.2297C0.204683 70.7026 0.00261792 71.5997 3.52261e-05 73.2714C-0.00168657 74.3787 0.0593144 74.9205 0.270357 75.6714C0.857982 77.7619 1.58495 78.7919 4.36934 81.4792C6.6736 83.703 7.55614 84.8382 8.47398 86.758C9.64136 89.2004 10.2307 91.5131 10.3455 94.1018C10.437 96.1687 10.2551 97.3099 9.32111 100.529C8.60865 102.985 8.50805 103.463 8.44742 104.685C8.36022 106.44 8.59254 107.595 9.35603 109.201C9.83051 110.199 10.0787 110.54 11.0376 111.511C12.6576 113.15 13.3752 113.494 17.2539 114.494C21.1598 115.5 22.3297 116.012 24.4991 117.665C25.7162 118.593 27.714 120.691 28.5496 121.919C29.8109 123.774 30.3649 125.152 31.168 128.433C32.1161 132.307 32.559 133.272 34.1019 134.825C35.2956 136.026 36.3056 136.673 37.7435 137.157C38.6188 137.451 38.9174 137.488 40.4492 137.491L42.171 137.493L44.9509 136.669C48.3431 135.662 49.2504 135.515 51.4508 135.617C54.0476 135.737 56.2288 136.307 58.6575 137.5C60.5657 138.437 61.6469 139.306 64.1854 141.943C65.8928 143.717 66.6015 144.364 67.2839 144.77C68.4621 145.471 69.7017 145.892 71.0634 146.053C73.0417 146.287 75.312 145.715 76.9977 144.557C77.3916 144.287 78.7645 142.993 80.0485 141.682C82.5175 139.161 83.4013 138.453 85.2533 137.515C87.5957 136.328 89.9456 135.726 92.6566 135.618C94.8975 135.529 95.7902 135.679 99.1748 136.715L101.696 137.486L103.479 137.491C105.118 137.496 105.343 137.468 106.246 137.151C108.221 136.458 109.858 135.198 110.97 133.518C111.756 132.33 111.98 131.703 112.779 128.461C113.146 126.976 113.63 125.319 113.855 124.779C115.51 120.81 119.404 116.946 123.221 115.484C123.693 115.303 125.283 114.854 126.753 114.486C128.224 114.118 129.793 113.649 130.239 113.444C133.685 111.864 135.76 108.414 135.544 104.625C135.489 103.651 135.327 102.908 134.671 100.624C133.675 97.1526 133.562 96.4497 133.646 94.2262C133.75 91.4622 134.352 89.0394 135.52 86.6828C136.449 84.8098 137.162 83.9005 139.642 81.4246C142.564 78.5085 143.205 77.5884 143.774 75.4889C144.096 74.3023 144.07 72.1187 143.72 70.8713C143.132 68.7808 142.405 67.7509 139.621 65.0636C138.522 64.0034 137.312 62.7115 136.931 62.1927C135.604 60.3841 134.52 57.8339 133.955 55.1953C133.735 54.1671 133.685 53.5301 133.684 51.757C133.684 49.3185 133.681 49.3318 134.782 45.6006C135.402 43.4984 135.486 43.0805 135.545 41.805C135.625 40.0512 135.363 38.8154 134.57 37.2068C134.154 36.3614 133.827 35.9246 132.938 35.0255C131.327 33.3951 130.596 33.0439 126.748 32.0514C125.077 31.6206 123.351 31.1152 122.911 30.9282C119.169 29.3369 115.444 25.5697 113.87 21.7861C113.685 21.3415 113.185 19.5956 112.759 17.9064C111.788 14.0566 111.423 13.2712 109.878 11.7109C108.696 10.5173 107.687 9.87083 106.246 9.38458C105.359 9.08499 105.088 9.05266 103.479 9.05453L101.696 9.05676L99.1748 9.82817C95.8244 10.8533 94.8912 11.0127 92.7181 10.9315C89.905 10.8263 87.3029 10.1189 84.7791 8.77347C83.1828 7.92235 82.2878 7.18103 80.1262 4.91941C79.0443 3.78723 77.8409 2.61128 77.452 2.30585C76.6152 1.64885 75.2973 0.989613 74.2702 0.714403C73.2283 0.435213 71.3758 0.366566 70.333 0.568528ZM75.6846 17.4376C89.2217 18.3944 101.554 24.0644 111.106 33.7231C115.525 38.1919 118.731 42.6998 121.541 48.3993C124.481 54.3616 126.156 60.0877 126.998 67.0534C127.217 68.8663 127.261 69.9046 127.261 73.2714C127.261 76.6382 127.217 77.6765 126.998 79.4894C126.156 86.4551 124.481 92.1812 121.541 98.1435C118.744 103.816 115.508 108.367 111.106 112.821C106.666 117.312 102.053 120.651 96.3461 123.502C90.6194 126.364 84.909 128.054 78.1443 128.889C75.0351 129.273 68.9549 129.273 65.8457 128.889C59.0863 128.054 53.3907 126.369 47.6439 123.505C36.5542 117.976 27.7843 109.109 22.3172 97.8948C17.3641 87.735 15.6144 76.343 17.2654 65.0014C18.4393 56.9372 21.3632 49.2621 25.9288 42.2599C30.4317 35.3541 37.1708 28.9592 44.3233 24.8052C51.9217 20.3921 59.7722 18.0258 68.9204 17.3909C70.2801 17.2965 74.0582 17.3226 75.6846 17.4376ZM69.2278 26.7185C64.608 27.0988 61.479 27.7051 57.6959 28.9531C46.0254 32.8027 36.2929 41.281 30.7874 52.3938C22.5402 69.0409 24.8319 88.8828 36.6516 103.168C47.7987 116.641 65.4385 122.642 82.3258 118.707C98.1036 115.03 110.892 103.148 115.888 87.5232C120.176 74.1145 118.168 59.3543 110.458 47.6021C102.505 35.4788 89.7232 27.8993 75.3218 26.7662C73.8065 26.6471 70.418 26.6205 69.2278 26.7185ZM97.207 50.2191C98.2824 50.459 100.067 51.3633 100.9 52.0904C102.456 53.4493 103.618 55.3241 104.034 57.1462C104.289 58.2649 104.285 60.3498 104.027 61.4285C103.684 62.861 102.874 64.373 101.78 65.6232C101.241 66.2388 93.5583 74.0511 84.7068 82.9839C67.6567 100.19 67.9771 99.8863 66.1394 100.613C63.3602 101.713 60.126 101.346 57.6034 99.6438C56.4969 98.8971 37.4287 79.6158 36.6903 78.4969C34.2161 74.7475 34.6835 69.8686 37.8208 66.6962C40.959 63.523 45.7966 63.0503 49.491 65.5559C49.9972 65.8992 52.5665 68.3917 56.5308 72.3851L62.7737 78.6736L75.9625 65.3574C83.2165 58.0335 89.4185 51.8598 89.7449 51.638C90.4693 51.1458 91.9076 50.4661 92.6566 50.2623C93.9697 49.9049 95.7232 49.8882 97.207 50.2191Z" fill="white"/>
</svg>
